<svg xmlns="http://www.w3.org/2000/svg" viewBox="0 0 853 542.401">
    <g fill="currentColor" transform="translate(-3473 -186.258)">
        <path data-name="Vibration Line Right 2" class="cls-1" d="M8,0H46a8,8,0,0,1,8,8V232a8,8,0,0,1-8,8H8a8,8,0,0,1-8-8V8A8,8,0,0,1,8,0Z" transform="translate(4272 338)"/>
        <path id="Vibration_Line_Right_1" data-name="Vibration Line Right 1" class="cls-1" d="M8,0H46a8,8,0,0,1,8,8V332a8,8,0,0,1-8,8H8a8,8,0,0,1-8-8V8A8,8,0,0,1,8,0Z" transform="translate(4194 288)"/>
        <path data-name="Vibration Line Left 2" class="cls-1" d="M8,0H46a8,8,0,0,1,8,8V232a8,8,0,0,1-8,8H8a8,8,0,0,1-8-8V8A8,8,0,0,1,8,0Z" transform="translate(3473 338)"/>
        <path data-name="Vibration Line Left 1" class="cls-1" d="M8,0H46a8,8,0,0,1,8,8V332a8,8,0,0,1-8,8H8a8,8,0,0,1-8-8V8A8,8,0,0,1,8,0Z" transform="translate(3551 288)"/>
        <g transform="translate(2939 -371)">
            <path d="M0,0H170V371H0Z" transform="translate(1061 643)"/>
            <path d="M0,0H371V170H0Z" transform="translate(775 929)"/>
            <path d="M1,0H170V371H0V1A1,1,0,0,1,1,0Z" transform="translate(690 643)"/>
            <path d="M1,0H372a1,1,0,0,1,1,1V170H0V1A1,1,0,0,1,1,0Z" transform="translate(774 558)"/>
            <path data-name="Bottom Right Corner" class="cls-1" d="M0,0H121V59.8a1.2,1.2,0,0,1-1.2,1.2H1.5A1.5,1.5,0,0,1,0,59.5Z" transform="translate(1102.838 1056.525) rotate(-45)"/>
            <path class="cls-1" d="M0,0H121V59.5a1.5,1.5,0,0,1-1.5,1.5H1a1,1,0,0,1-1-1Z" transform="translate(732.678 970.965) rotate(45)"/>
            <path class="cls-1" d="M2,0H119a3,3,0,0,1,3,3V61H0V2A2,2,0,0,1,2,0Z" transform="translate(1145.971 557.258) rotate(45)"/>
            <path class="cls-1" d="M3,0H120a2,2,0,0,1,2,2V61H0V3A3,3,0,0,1,3,0Z" transform="translate(688.838 643.525) rotate(-45)"/>
        </g>
    </g>
</svg>
